<svg width="1100" height="97" viewBox="0 0 1100 97" fill="none" xmlns="http://www.w3.org/2000/svg">
<path d="M87.9375 23.5H52.125V96.875H35.875V23.5H0V7.25H87.9375V23.5ZM173.25 96.875H157V52.0625C157 49.9375 156.458 48.3333 155.375 47.25C154.292 46.125 152.667 45.5625 150.5 45.5625H121.188V29.3125H150.5C152.042 29.3125 153.667 29.5 155.375 29.875C157.083 30.2083 158.771 30.75 160.438 31.5C162.146 32.25 163.771 33.2292 165.312 34.4375C166.854 35.6042 168.208 37.0417 169.375 38.75C170.542 40.4167 171.479 42.3542 172.188 44.5625C172.896 46.7708 173.25 49.2708 173.25 52.0625V96.875ZM114.625 96.875H98.375V0.75H114.625V96.875ZM260.812 51.6875C260.812 53.9375 260.417 56.375 259.625 59C258.833 61.5833 257.542 64 255.75 66.25C254 68.4583 251.688 70.3125 248.812 71.8125C245.979 73.3125 242.521 74.0625 238.438 74.0625H209.125V58.625H238.438C240.646 58.625 242.354 57.9583 243.562 56.625C244.771 55.25 245.375 53.5625 245.375 51.5625C245.375 49.4375 244.688 47.7708 243.312 46.5625C241.979 45.3542 240.354 44.75 238.438 44.75H209.125C206.917 44.75 205.208 45.4375 204 46.8125C202.792 48.1458 202.188 49.8125 202.188 51.8125V74.5C202.188 76.6667 202.854 78.3542 204.188 79.5625C205.562 80.7708 207.25 81.375 209.25 81.375H238.438V96.875H209.125C206.875 96.875 204.438 96.4792 201.812 95.6875C199.229 94.8958 196.812 93.625 194.562 91.875C192.354 90.0833 190.5 87.7708 189 84.9375C187.5 82.0625 186.75 78.5833 186.75 74.5V51.6875C186.75 49.4375 187.146 47.0208 187.938 44.4375C188.729 41.8125 190 39.3958 191.75 37.1875C193.542 34.9375 195.854 33.0625 198.688 31.5625C201.562 30.0625 205.042 29.3125 209.125 29.3125H238.438C240.688 29.3125 243.104 29.7083 245.688 30.5C248.312 31.2917 250.729 32.5833 252.938 34.375C255.188 36.125 257.062 38.4375 258.562 41.3125C260.062 44.1458 260.812 47.6042 260.812 51.6875ZM395.438 96.875H336.812C335.312 96.875 333.688 96.7083 331.938 96.375C330.229 96 328.521 95.4375 326.812 94.6875C325.146 93.9375 323.542 92.9792 322 91.8125C320.458 90.6042 319.083 89.1667 317.875 87.5C316.708 85.7917 315.771 83.8333 315.062 81.625C314.354 79.375 314 76.8542 314 74.0625V30.0625C314 28.5625 314.167 26.9583 314.5 25.25C314.875 23.5 315.438 21.7917 316.188 20.125C316.938 18.4167 317.917 16.7917 319.125 15.25C320.333 13.7083 321.771 12.3542 323.438 11.1875C325.146 9.97917 327.104 9.02083 329.312 8.3125C331.521 7.60417 334.021 7.25 336.812 7.25H395.438V23.5H336.812C334.688 23.5 333.062 24.0625 331.938 25.1875C330.812 26.3125 330.25 27.9792 330.25 30.1875V74.0625C330.25 76.1458 330.812 77.7708 331.938 78.9375C333.104 80.0625 334.729 80.625 336.812 80.625H395.438V96.875ZM481.625 74.0625C481.625 76.8542 481.271 79.375 480.562 81.625C479.854 83.8333 478.917 85.7917 477.75 87.5C476.583 89.1667 475.229 90.6042 473.688 91.8125C472.146 92.9792 470.521 93.9375 468.812 94.6875C467.146 95.4375 465.438 96 463.688 96.375C461.979 96.7083 460.354 96.875 458.812 96.875H429.5C427.25 96.875 424.792 96.4792 422.125 95.6875C419.458 94.8958 416.979 93.6042 414.688 91.8125C412.438 89.9792 410.542 87.625 409 84.75C407.5 81.8333 406.75 78.2708 406.75 74.0625V52.0625C406.75 47.8958 407.5 44.375 409 41.5C410.542 38.5833 412.438 36.2292 414.688 34.4375C416.979 32.6042 419.458 31.2917 422.125 30.5C424.792 29.7083 427.25 29.3125 429.5 29.3125H458.812C462.979 29.3125 466.521 30.0625 469.438 31.5625C472.354 33.0625 474.708 34.9583 476.5 37.25C478.292 39.5 479.583 41.9583 480.375 44.625C481.208 47.2917 481.625 49.7708 481.625 52.0625V74.0625ZM465.375 52.1875C465.375 49.9375 464.812 48.2708 463.688 47.1875C462.562 46.1042 460.938 45.5625 458.812 45.5625H429.625C427.458 45.5625 425.812 46.125 424.688 47.25C423.562 48.3333 423 49.9375 423 52.0625V74.0625C423 76.1875 423.562 77.8125 424.688 78.9375C425.812 80.0625 427.458 80.625 429.625 80.625H458.812C461.021 80.625 462.667 80.0625 463.75 78.9375C464.833 77.8125 465.375 76.1875 465.375 74.0625V52.1875ZM569.625 74.0625C569.625 76.8542 569.271 79.375 568.562 81.625C567.854 83.8333 566.917 85.7917 565.75 87.5C564.583 89.1667 563.229 90.6042 561.688 91.8125C560.146 92.9792 558.521 93.9375 556.812 94.6875C555.146 95.4375 553.438 96 551.688 96.375C549.979 96.7083 548.354 96.875 546.812 96.875H517.5C514.708 96.875 512.208 96.5208 510 95.8125C507.792 95.1042 505.833 94.1667 504.125 93C502.458 91.7917 501.021 90.4167 499.812 88.875C498.646 87.3333 497.688 85.7292 496.938 84.0625C496.188 82.3542 495.625 80.6458 495.25 78.9375C494.917 77.1875 494.75 75.5625 494.75 74.0625V52.0625C494.75 47.8958 495.5 44.375 497 41.5C498.542 38.5833 500.438 36.2292 502.688 34.4375C504.979 32.6042 507.458 31.2917 510.125 30.5C512.792 29.7083 515.25 29.3125 517.5 29.3125H546.812V45.5625H517.625C515.458 45.5625 513.812 46.125 512.688 47.25C511.562 48.3333 511 49.9375 511 52.0625V73.9375C511 76.1458 511.542 77.8125 512.625 78.9375C513.75 80.0625 515.375 80.625 517.5 80.625H546.812C549.021 80.625 550.667 80.0625 551.75 78.9375C552.833 77.8125 553.375 76.1875 553.375 74.0625V0.75H569.625V74.0625ZM657.812 51.6875C657.812 53.9375 657.417 56.375 656.625 59C655.833 61.5833 654.542 64 652.75 66.25C651 68.4583 648.688 70.3125 645.812 71.8125C642.979 73.3125 639.521 74.0625 635.438 74.0625H606.125V58.625H635.438C637.646 58.625 639.354 57.9583 640.562 56.625C641.771 55.25 642.375 53.5625 642.375 51.5625C642.375 49.4375 641.688 47.7708 640.312 46.5625C638.979 45.3542 637.354 44.75 635.438 44.75H606.125C603.917 44.75 602.208 45.4375 601 46.8125C599.792 48.1458 599.188 49.8125 599.188 51.8125V74.5C599.188 76.6667 599.854 78.3542 601.188 79.5625C602.562 80.7708 604.25 81.375 606.25 81.375H635.438V96.875H606.125C603.875 96.875 601.438 96.4792 598.812 95.6875C596.229 94.8958 593.812 93.625 591.562 91.875C589.354 90.0833 587.5 87.7708 586 84.9375C584.5 82.0625 583.75 78.5833 583.75 74.5V51.6875C583.75 49.4375 584.146 47.0208 584.938 44.4375C585.729 41.8125 587 39.3958 588.75 37.1875C590.542 34.9375 592.854 33.0625 595.688 31.5625C598.562 30.0625 602.042 29.3125 606.125 29.3125H635.438C637.688 29.3125 640.104 29.7083 642.688 30.5C645.312 31.2917 647.729 32.5833 649.938 34.375C652.188 36.125 654.062 38.4375 655.562 41.3125C657.062 44.1458 657.812 47.6042 657.812 51.6875ZM783.875 74.0625C783.875 76.8542 783.521 79.375 782.812 81.625C782.104 83.8333 781.167 85.7917 780 87.5C778.833 89.1667 777.479 90.6042 775.938 91.8125C774.396 92.9792 772.771 93.9375 771.062 94.6875C769.396 95.4375 767.688 96 765.938 96.375C764.229 96.7083 762.604 96.875 761.062 96.875H731.75C729.5 96.875 727.042 96.4792 724.375 95.6875C721.708 94.8958 719.229 93.6042 716.938 91.8125C714.688 89.9792 712.792 87.625 711.25 84.75C709.75 81.8333 709 78.2708 709 74.0625V52.0625C709 47.8958 709.75 44.375 711.25 41.5C712.792 38.5833 714.688 36.2292 716.938 34.4375C719.229 32.6042 721.708 31.2917 724.375 30.5C727.042 29.7083 729.5 29.3125 731.75 29.3125H761.062C765.229 29.3125 768.771 30.0625 771.688 31.5625C774.604 33.0625 776.958 34.9583 778.75 37.25C780.542 39.5 781.833 41.9583 782.625 44.625C783.458 47.2917 783.875 49.7708 783.875 52.0625V74.0625ZM767.625 52.1875C767.625 49.9375 767.062 48.2708 765.938 47.1875C764.812 46.1042 763.188 45.5625 761.062 45.5625H731.875C729.708 45.5625 728.062 46.125 726.938 47.25C725.812 48.3333 725.25 49.9375 725.25 52.0625V74.0625C725.25 76.1875 725.812 77.8125 726.938 78.9375C728.062 80.0625 729.708 80.625 731.875 80.625H761.062C763.271 80.625 764.917 80.0625 766 78.9375C767.083 77.8125 767.625 76.1875 767.625 74.0625V52.1875ZM857.562 45.5625H820.812V29.3125H857.562V45.5625ZM857.562 16.25H820.938C818.729 16.25 817.062 16.8125 815.938 17.9375C814.812 19.0208 814.25 20.625 814.25 22.75V96.875H798V22.75C798 19.9583 798.354 17.4583 799.062 15.25C799.771 13.0417 800.708 11.1042 801.875 9.4375C803.083 7.72917 804.458 6.29167 806 5.125C807.542 3.91667 809.146 2.9375 810.812 2.1875C812.521 1.4375 814.229 0.895833 815.938 0.5625C817.646 0.1875 819.271 0 820.812 0H857.562V16.25ZM996.812 70.5C996.812 73.7083 996.396 76.6042 995.562 79.1875C994.771 81.7292 993.708 83.9792 992.375 85.9375C991.042 87.8958 989.479 89.5625 987.688 90.9375C985.896 92.3125 984.042 93.4375 982.125 94.3125C980.208 95.1875 978.25 95.8333 976.25 96.25C974.292 96.6667 972.438 96.875 970.688 96.875H908V80.625H970.688C973.812 80.625 976.229 79.7083 977.938 77.875C979.688 76.0417 980.562 73.5833 980.562 70.5C980.562 69 980.333 67.625 979.875 66.375C979.417 65.125 978.75 64.0417 977.875 63.125C977.042 62.2083 976 61.5 974.75 61C973.542 60.5 972.188 60.25 970.688 60.25H933.312C930.688 60.25 927.854 59.7917 924.812 58.875C921.771 57.9167 918.938 56.3958 916.312 54.3125C913.729 52.2292 911.562 49.5 909.812 46.125C908.104 42.75 907.25 38.625 907.25 33.75C907.25 28.875 908.104 24.7708 909.812 21.4375C911.562 18.0625 913.729 15.3333 916.312 13.25C918.938 11.125 921.771 9.60417 924.812 8.6875C927.854 7.72917 930.688 7.25 933.312 7.25H988.625V23.5H933.312C930.229 23.5 927.812 24.4375 926.062 26.3125C924.354 28.1875 923.5 30.6667 923.5 33.75C923.5 36.875 924.354 39.3542 926.062 41.1875C927.812 42.9792 930.229 43.875 933.312 43.875H970.688H970.812C972.562 43.9167 974.417 44.1667 976.375 44.625C978.333 45.0417 980.271 45.7083 982.188 46.625C984.146 47.5417 986 48.7083 987.75 50.125C989.5 51.5 991.042 53.1667 992.375 55.125C993.75 57.0833 994.833 59.3333 995.625 61.875C996.417 64.4167 996.812 67.2917 996.812 70.5ZM1099.62 44.75C1099.62 48.4583 1099.17 51.7708 1098.25 54.6875C1097.33 57.6042 1096.08 60.1875 1094.5 62.4375C1092.96 64.6458 1091.17 66.5417 1089.12 68.125C1087.08 69.7083 1084.94 71 1082.69 72C1080.48 73 1078.23 73.7292 1075.94 74.1875C1073.69 74.6458 1071.56 74.875 1069.56 74.875H1032.81V58.625H1069.56C1071.65 58.4583 1073.52 58.0417 1075.19 57.375C1076.9 56.6667 1078.35 55.7292 1079.56 54.5625C1080.77 53.3958 1081.71 52 1082.38 50.375C1083.04 48.7083 1083.38 46.8333 1083.38 44.75V37.375C1083.17 35.3333 1082.73 33.4583 1082.06 31.75C1081.4 30.0417 1080.48 28.5833 1079.31 27.375C1078.19 26.1667 1076.81 25.2292 1075.19 24.5625C1073.56 23.8542 1071.69 23.5 1069.56 23.5H1032.94C1030.77 23.5 1029.12 24.0625 1028 25.1875C1026.88 26.3125 1026.31 27.9375 1026.31 30.0625V96.875H1010.06V30.0625C1010.06 25.8958 1010.81 22.3542 1012.31 19.4375C1013.85 16.5208 1015.75 14.1667 1018 12.375C1020.29 10.5833 1022.77 9.29167 1025.44 8.5C1028.1 7.66667 1030.56 7.25 1032.81 7.25H1069.56C1073.23 7.25 1076.52 7.72917 1079.44 8.6875C1082.35 9.60417 1084.92 10.8542 1087.12 12.4375C1089.38 13.9792 1091.27 15.7708 1092.81 17.8125C1094.4 19.8542 1095.69 22 1096.69 24.25C1097.73 26.4583 1098.48 28.7083 1098.94 31C1099.4 33.25 1099.62 35.375 1099.62 37.375V44.75Z" fill="#02FF1C"/>
</svg>
