<svg width="275" height="28" viewBox="0 0 275 28" fill="none" xmlns="http://www.w3.org/2000/svg">
<path d="M24.7324 6.60938H14.6602V27.2461H10.0898V6.60938H0V2.03906H24.7324V6.60938ZM48.7266 27.2461H44.1562V14.6426C44.1562 14.0449 44.0039 13.5938 43.6992 13.2891C43.3945 12.9727 42.9375 12.8145 42.3281 12.8145H34.084V8.24414H42.3281C42.7617 8.24414 43.2188 8.29688 43.6992 8.40234C44.1797 8.49609 44.6543 8.64844 45.123 8.85938C45.6035 9.07031 46.0605 9.3457 46.4941 9.68555C46.9277 10.0137 47.3086 10.418 47.6367 10.8984C47.9648 11.3672 48.2285 11.9121 48.4277 12.5332C48.627 13.1543 48.7266 13.8574 48.7266 14.6426V27.2461ZM32.2383 27.2461H27.668V0.210938H32.2383V27.2461ZM73.3535 14.5371C73.3535 15.1699 73.2422 15.8555 73.0195 16.5938C72.7969 17.3203 72.4336 18 71.9297 18.6328C71.4375 19.2539 70.7871 19.7754 69.9785 20.1973C69.1816 20.6191 68.209 20.8301 67.0605 20.8301H58.8164V16.4883H67.0605C67.6816 16.4883 68.1621 16.3008 68.502 15.9258C68.8418 15.5391 69.0117 15.0645 69.0117 14.502C69.0117 13.9043 68.8184 13.4355 68.4316 13.0957C68.0566 12.7559 67.5996 12.5859 67.0605 12.5859H58.8164C58.1953 12.5859 57.7148 12.7793 57.375 13.166C57.0352 13.541 56.8652 14.0098 56.8652 14.5723V20.9531C56.8652 21.5625 57.0527 22.0371 57.4277 22.377C57.8145 22.7168 58.2891 22.8867 58.8516 22.8867H67.0605V27.2461H58.8164C58.1836 27.2461 57.498 27.1348 56.7598 26.9121C56.0332 26.6895 55.3535 26.332 54.7207 25.8398C54.0996 25.3359 53.5781 24.6855 53.1562 23.8887C52.7344 23.0801 52.5234 22.1016 52.5234 20.9531V14.5371C52.5234 13.9043 52.6348 13.2246 52.8574 12.498C53.0801 11.7598 53.4375 11.0801 53.9297 10.459C54.4336 9.82617 55.084 9.29883 55.8809 8.87695C56.6895 8.45508 57.668 8.24414 58.8164 8.24414H67.0605C67.6934 8.24414 68.373 8.35547 69.0996 8.57812C69.8379 8.80078 70.5176 9.16406 71.1387 9.66797C71.7715 10.1602 72.2988 10.8105 72.7207 11.6191C73.1426 12.416 73.3535 13.3887 73.3535 14.5371ZM99.5098 27.2461H83.0215C82.5996 27.2461 82.1426 27.1992 81.6504 27.1055C81.1699 27 80.6895 26.8418 80.209 26.6309C79.7402 26.4199 79.2891 26.1504 78.8555 25.8223C78.4219 25.4824 78.0352 25.0781 77.6953 24.6094C77.3672 24.1289 77.1035 23.5781 76.9043 22.957C76.7051 22.3242 76.6055 21.6152 76.6055 20.8301V8.45508C76.6055 8.0332 76.6523 7.58203 76.7461 7.10156C76.8516 6.60938 77.0098 6.12891 77.2207 5.66016C77.4316 5.17969 77.707 4.72266 78.0469 4.28906C78.3867 3.85547 78.791 3.47461 79.2598 3.14648C79.7402 2.80664 80.291 2.53711 80.9121 2.33789C81.5332 2.13867 82.2363 2.03906 83.0215 2.03906H99.5098V6.60938H83.0215C82.4238 6.60938 81.9668 6.76758 81.6504 7.08398C81.334 7.40039 81.1758 7.86914 81.1758 8.49023V20.8301C81.1758 21.416 81.334 21.873 81.6504 22.2012C81.9785 22.5176 82.4355 22.6758 83.0215 22.6758H99.5098V27.2461ZM123.75 20.8301C123.75 21.6152 123.65 22.3242 123.451 22.957C123.252 23.5781 122.988 24.1289 122.66 24.6094C122.332 25.0781 121.951 25.4824 121.518 25.8223C121.084 26.1504 120.627 26.4199 120.146 26.6309C119.678 26.8418 119.197 27 118.705 27.1055C118.225 27.1992 117.768 27.2461 117.334 27.2461H109.09C108.457 27.2461 107.766 27.1348 107.016 26.9121C106.266 26.6895 105.568 26.3262 104.924 25.8223C104.291 25.3066 103.758 24.6445 103.324 23.8359C102.902 23.0156 102.691 22.0137 102.691 20.8301V14.6426C102.691 13.4707 102.902 12.4805 103.324 11.6719C103.758 10.8516 104.291 10.1895 104.924 9.68555C105.568 9.16992 106.266 8.80078 107.016 8.57812C107.766 8.35547 108.457 8.24414 109.09 8.24414H117.334C118.506 8.24414 119.502 8.45508 120.322 8.87695C121.143 9.29883 121.805 9.83203 122.309 10.4766C122.812 11.1094 123.176 11.8008 123.398 12.5508C123.633 13.3008 123.75 13.998 123.75 14.6426V20.8301ZM119.18 14.6777C119.18 14.0449 119.021 13.5762 118.705 13.2715C118.389 12.9668 117.932 12.8145 117.334 12.8145H109.125C108.516 12.8145 108.053 12.9727 107.736 13.2891C107.42 13.5938 107.262 14.0449 107.262 14.6426V20.8301C107.262 21.4277 107.42 21.8848 107.736 22.2012C108.053 22.5176 108.516 22.6758 109.125 22.6758H117.334C117.955 22.6758 118.418 22.5176 118.723 22.2012C119.027 21.8848 119.18 21.4277 119.18 20.8301V14.6777ZM148.5 20.8301C148.5 21.6152 148.4 22.3242 148.201 22.957C148.002 23.5781 147.738 24.1289 147.41 24.6094C147.082 25.0781 146.701 25.4824 146.268 25.8223C145.834 26.1504 145.377 26.4199 144.896 26.6309C144.428 26.8418 143.947 27 143.455 27.1055C142.975 27.1992 142.518 27.2461 142.084 27.2461H133.84C133.055 27.2461 132.352 27.1465 131.73 26.9473C131.109 26.748 130.559 26.4844 130.078 26.1562C129.609 25.8164 129.205 25.4297 128.865 24.9961C128.537 24.5625 128.268 24.1113 128.057 23.6426C127.846 23.1621 127.688 22.6816 127.582 22.2012C127.488 21.709 127.441 21.252 127.441 20.8301V14.6426C127.441 13.4707 127.652 12.4805 128.074 11.6719C128.508 10.8516 129.041 10.1895 129.674 9.68555C130.318 9.16992 131.016 8.80078 131.766 8.57812C132.516 8.35547 133.207 8.24414 133.84 8.24414H142.084V12.8145H133.875C133.266 12.8145 132.803 12.9727 132.486 13.2891C132.17 13.5938 132.012 14.0449 132.012 14.6426V20.7949C132.012 21.416 132.164 21.8848 132.469 22.2012C132.785 22.5176 133.242 22.6758 133.84 22.6758H142.084C142.705 22.6758 143.168 22.5176 143.473 22.2012C143.777 21.8848 143.93 21.4277 143.93 20.8301V0.210938H148.5V20.8301ZM173.303 14.5371C173.303 15.1699 173.191 15.8555 172.969 16.5938C172.746 17.3203 172.383 18 171.879 18.6328C171.387 19.2539 170.736 19.7754 169.928 20.1973C169.131 20.6191 168.158 20.8301 167.01 20.8301H158.766V16.4883H167.01C167.631 16.4883 168.111 16.3008 168.451 15.9258C168.791 15.5391 168.961 15.0645 168.961 14.502C168.961 13.9043 168.768 13.4355 168.381 13.0957C168.006 12.7559 167.549 12.5859 167.01 12.5859H158.766C158.145 12.5859 157.664 12.7793 157.324 13.166C156.984 13.541 156.814 14.0098 156.814 14.5723V20.9531C156.814 21.5625 157.002 22.0371 157.377 22.377C157.764 22.7168 158.238 22.8867 158.801 22.8867H167.01V27.2461H158.766C158.133 27.2461 157.447 27.1348 156.709 26.9121C155.982 26.6895 155.303 26.332 154.67 25.8398C154.049 25.3359 153.527 24.6855 153.105 23.8887C152.684 23.0801 152.473 22.1016 152.473 20.9531V14.5371C152.473 13.9043 152.584 13.2246 152.807 12.498C153.029 11.7598 153.387 11.0801 153.879 10.459C154.383 9.82617 155.033 9.29883 155.83 8.87695C156.639 8.45508 157.617 8.24414 158.766 8.24414H167.01C167.643 8.24414 168.322 8.35547 169.049 8.57812C169.787 8.80078 170.467 9.16406 171.088 9.66797C171.721 10.1602 172.248 10.8105 172.67 11.6191C173.092 12.416 173.303 13.3887 173.303 14.5371ZM197.051 20.8301C197.051 21.6152 196.951 22.3242 196.752 22.957C196.553 23.5781 196.289 24.1289 195.961 24.6094C195.633 25.0781 195.252 25.4824 194.818 25.8223C194.385 26.1504 193.928 26.4199 193.447 26.6309C192.979 26.8418 192.498 27 192.006 27.1055C191.525 27.1992 191.068 27.2461 190.635 27.2461H182.391C181.758 27.2461 181.066 27.1348 180.316 26.9121C179.566 26.6895 178.869 26.3262 178.225 25.8223C177.592 25.3066 177.059 24.6445 176.625 23.8359C176.203 23.0156 175.992 22.0137 175.992 20.8301V14.6426C175.992 13.4707 176.203 12.4805 176.625 11.6719C177.059 10.8516 177.592 10.1895 178.225 9.68555C178.869 9.16992 179.566 8.80078 180.316 8.57812C181.066 8.35547 181.758 8.24414 182.391 8.24414H190.635C191.807 8.24414 192.803 8.45508 193.623 8.87695C194.443 9.29883 195.105 9.83203 195.609 10.4766C196.113 11.1094 196.477 11.8008 196.699 12.5508C196.934 13.3008 197.051 13.998 197.051 14.6426V20.8301ZM192.48 14.6777C192.48 14.0449 192.322 13.5762 192.006 13.2715C191.689 12.9668 191.232 12.8145 190.635 12.8145H182.426C181.816 12.8145 181.354 12.9727 181.037 13.2891C180.721 13.5938 180.562 14.0449 180.562 14.6426V20.8301C180.562 21.4277 180.721 21.8848 181.037 22.2012C181.354 22.5176 181.816 22.6758 182.426 22.6758H190.635C191.256 22.6758 191.719 22.5176 192.023 22.2012C192.328 21.8848 192.48 21.4277 192.48 20.8301V14.6777ZM217.775 12.8145H207.439V8.24414H217.775V12.8145ZM217.775 4.57031H207.475C206.854 4.57031 206.385 4.72852 206.068 5.04492C205.752 5.34961 205.594 5.80078 205.594 6.39844V27.2461H201.023V6.39844C201.023 5.61328 201.123 4.91016 201.322 4.28906C201.521 3.66797 201.785 3.12305 202.113 2.6543C202.453 2.17383 202.84 1.76953 203.273 1.44141C203.707 1.10156 204.158 0.826172 204.627 0.615234C205.107 0.404297 205.588 0.251953 206.068 0.158203C206.549 0.0527344 207.006 0 207.439 0H217.775V4.57031ZM245.514 19.8281C245.514 20.7305 245.396 21.5449 245.162 22.2715C244.939 22.9863 244.641 23.6191 244.266 24.1699C243.891 24.7207 243.451 25.1895 242.947 25.5762C242.443 25.9629 241.922 26.2793 241.383 26.5254C240.844 26.7715 240.293 26.9531 239.73 27.0703C239.18 27.1875 238.658 27.2461 238.166 27.2461H220.535V22.6758H238.166C239.045 22.6758 239.725 22.418 240.205 21.9023C240.697 21.3867 240.943 20.6953 240.943 19.8281C240.943 19.4062 240.879 19.0195 240.75 18.668C240.621 18.3164 240.434 18.0117 240.188 17.7539C239.953 17.4961 239.66 17.2969 239.309 17.1562C238.969 17.0156 238.588 16.9453 238.166 16.9453H227.654C226.916 16.9453 226.119 16.8164 225.264 16.5586C224.408 16.2891 223.611 15.8613 222.873 15.2754C222.146 14.6895 221.537 13.9219 221.045 12.9727C220.564 12.0234 220.324 10.8633 220.324 9.49219C220.324 8.12109 220.564 6.9668 221.045 6.0293C221.537 5.08008 222.146 4.3125 222.873 3.72656C223.611 3.12891 224.408 2.70117 225.264 2.44336C226.119 2.17383 226.916 2.03906 227.654 2.03906H243.211V6.60938H227.654C226.787 6.60938 226.107 6.87305 225.615 7.40039C225.135 7.92773 224.895 8.625 224.895 9.49219C224.895 10.3711 225.135 11.0684 225.615 11.584C226.107 12.0879 226.787 12.3398 227.654 12.3398H238.166H238.201C238.693 12.3516 239.215 12.4219 239.766 12.5508C240.316 12.668 240.861 12.8555 241.4 13.1133C241.951 13.3711 242.473 13.6992 242.965 14.0977C243.457 14.4844 243.891 14.9531 244.266 15.5039C244.652 16.0547 244.957 16.6875 245.18 17.4023C245.402 18.1172 245.514 18.9258 245.514 19.8281ZM274.43 12.5859C274.43 13.6289 274.301 14.5605 274.043 15.3809C273.785 16.2012 273.434 16.9277 272.988 17.5605C272.555 18.1816 272.051 18.7148 271.477 19.1602C270.902 19.6055 270.299 19.9688 269.666 20.25C269.045 20.5312 268.412 20.7363 267.768 20.8652C267.135 20.9941 266.537 21.0586 265.975 21.0586H255.639V16.4883H265.975C266.561 16.4414 267.088 16.3242 267.557 16.1367C268.037 15.9375 268.447 15.6738 268.787 15.3457C269.127 15.0176 269.391 14.625 269.578 14.168C269.766 13.6992 269.859 13.1719 269.859 12.5859V10.5117C269.801 9.9375 269.678 9.41016 269.49 8.92969C269.303 8.44922 269.045 8.03906 268.717 7.69922C268.4 7.35938 268.014 7.0957 267.557 6.9082C267.1 6.70898 266.572 6.60938 265.975 6.60938H255.674C255.064 6.60938 254.602 6.76758 254.285 7.08398C253.969 7.40039 253.811 7.85742 253.811 8.45508V27.2461H249.24V8.45508C249.24 7.2832 249.451 6.28711 249.873 5.4668C250.307 4.64648 250.84 3.98438 251.473 3.48047C252.117 2.97656 252.814 2.61328 253.564 2.39062C254.314 2.15625 255.006 2.03906 255.639 2.03906H265.975C267.006 2.03906 267.932 2.17383 268.752 2.44336C269.572 2.70117 270.293 3.05273 270.914 3.49805C271.547 3.93164 272.08 4.43555 272.514 5.00977C272.959 5.58398 273.322 6.1875 273.604 6.82031C273.896 7.44141 274.107 8.07422 274.236 8.71875C274.365 9.35156 274.43 9.94922 274.43 10.5117V12.5859Z" fill="black"/>
</svg>
