<svg width="73" height="34" viewBox="0 0 73 34" fill="none" xmlns="http://www.w3.org/2000/svg">
<path d="M33.5859 23.7188C33.5859 24.9219 33.4297 26.0078 33.1172 26.9766C32.8203 27.9297 32.4219 28.7734 31.9219 29.5078C31.4219 30.2422 30.8359 30.8672 30.1641 31.3828C29.4922 31.8984 28.7969 32.3203 28.0781 32.6484C27.3594 32.9766 26.625 33.2188 25.875 33.375C25.1406 33.5312 24.4453 33.6094 23.7891 33.6094H0.28125V27.5156H23.7891C24.9609 27.5156 25.8672 27.1719 26.5078 26.4844C27.1641 25.7969 27.4922 24.875 27.4922 23.7188C27.4922 23.1562 27.4062 22.6406 27.2344 22.1719C27.0625 21.7031 26.8125 21.2969 26.4844 20.9531C26.1719 20.6094 25.7812 20.3438 25.3125 20.1562C24.8594 19.9688 24.3516 19.875 23.7891 19.875H9.77344C8.78906 19.875 7.72656 19.7031 6.58594 19.3594C5.44531 19 4.38281 18.4297 3.39844 17.6484C2.42969 16.8672 1.61719 15.8438 0.960938 14.5781C0.320312 13.3125 0 11.7656 0 9.9375C0 8.10938 0.320312 6.57031 0.960938 5.32031C1.61719 4.05469 2.42969 3.03125 3.39844 2.25C4.38281 1.45312 5.44531 0.882813 6.58594 0.539062C7.72656 0.179688 8.78906 0 9.77344 0H30.5156V6.09375H9.77344C8.61719 6.09375 7.71094 6.44531 7.05469 7.14844C6.41406 7.85156 6.09375 8.78125 6.09375 9.9375C6.09375 11.1094 6.41406 12.0391 7.05469 12.7266C7.71094 13.3984 8.61719 13.7344 9.77344 13.7344H23.7891H23.8359C24.4922 13.75 25.1875 13.8438 25.9219 14.0156C26.6562 14.1719 27.3828 14.4219 28.1016 14.7656C28.8359 15.1094 29.5312 15.5469 30.1875 16.0781C30.8438 16.5938 31.4219 17.2188 31.9219 17.9531C32.4375 18.6875 32.8438 19.5312 33.1406 20.4844C33.4375 21.4375 33.5859 22.5156 33.5859 23.7188ZM72.1406 14.0625C72.1406 15.4531 71.9688 16.6953 71.625 17.7891C71.2812 18.8828 70.8125 19.8516 70.2188 20.6953C69.6406 21.5234 68.9688 22.2344 68.2031 22.8281C67.4375 23.4219 66.6328 23.9062 65.7891 24.2812C64.9609 24.6562 64.1172 24.9297 63.2578 25.1016C62.4141 25.2734 61.6172 25.3594 60.8672 25.3594H47.0859V19.2656H60.8672C61.6484 19.2031 62.3516 19.0469 62.9766 18.7969C63.6172 18.5312 64.1641 18.1797 64.6172 17.7422C65.0703 17.3047 65.4219 16.7812 65.6719 16.1719C65.9219 15.5469 66.0469 14.8438 66.0469 14.0625V11.2969C65.9688 10.5312 65.8047 9.82812 65.5547 9.1875C65.3047 8.54688 64.9609 8 64.5234 7.54688C64.1016 7.09375 63.5859 6.74219 62.9766 6.49219C62.3672 6.22656 61.6641 6.09375 60.8672 6.09375H47.1328C46.3203 6.09375 45.7031 6.30469 45.2812 6.72656C44.8594 7.14844 44.6484 7.75781 44.6484 8.55469V33.6094H38.5547V8.55469C38.5547 6.99219 38.8359 5.66406 39.3984 4.57031C39.9766 3.47656 40.6875 2.59375 41.5312 1.92188C42.3906 1.25 43.3203 0.765625 44.3203 0.46875C45.3203 0.15625 46.2422 0 47.0859 0H60.8672C62.2422 0 63.4766 0.179688 64.5703 0.539062C65.6641 0.882813 66.625 1.35156 67.4531 1.94531C68.2969 2.52344 69.0078 3.19531 69.5859 3.96094C70.1797 4.72656 70.6641 5.53125 71.0391 6.375C71.4297 7.20312 71.7109 8.04688 71.8828 8.90625C72.0547 9.75 72.1406 10.5469 72.1406 11.2969V14.0625Z" fill="black"/>
</svg>
