<?xml version="1.0" encoding="utf-8"?>
<!-- Svg Vector Icons : http://www.onlinewebfonts.com/icon -->
<!DOCTYPE svg PUBLIC "-//W3C//DTD SVG 1.1//EN" "http://www.w3.org/Graphics/SVG/1.1/DTD/svg11.dtd">
<svg version="1.1" xmlns="http://www.w3.org/2000/svg" xmlns:xlink="http://www.w3.org/1999/xlink" x="0px" y="0px" viewBox="0 0 256 256" enable-background="new 0 0 256 256" xml:space="preserve">
<metadata> Svg Vector Icons : http://www.onlinewebfonts.com/icon </metadata>
<g><g><path fill="#000000" d="M178.9,60.3H76.1c-2.6,0-4.7,2.1-4.7,4.7v126.2c0,2.6,2.1,4.7,4.7,4.7h102.8c2.6,0,4.7-2.1,4.7-4.7V64.9C183.5,62.3,181.5,60.3,178.9,60.3z M137.8,166.3H86.4v-7h51.4V166.3z M137.8,130.3H86.4v-7h51.4V130.3z M137.8,94.4H86.4v-7h51.4V94.4z M175.3,153.5l-18.7,19.2c0,0,0,0.1-0.1,0.1c-1,1-2.6,1-3.5,0l-7.1-7.2c-1-1-1-2.6,0-3.6c1-1,2.6-1,3.5,0l5.3,5.4l17-17.5c1-1,2.6-1,3.5,0C176.3,150.9,176.3,152.5,175.3,153.5z M175.3,117.1l-18.7,19.2c0,0,0,0.1-0.1,0.1c-1,1-2.6,1-3.5,0l-7-7.3c-1-1-1-2.6,0-3.6c1-1,2.6-1,3.5,0l5.3,5.4l17-17.5c1-1,2.6-1,3.5,0C176.3,114.5,176.3,116.1,175.3,117.1z M175.3,83.3l-18.7,19.2c0,0,0,0.1-0.1,0.1c-1,1-2.6,1-3.5,0l-7.1-7.2c-1-1-1-2.6,0-3.6c1-1,2.6-1,3.5,0l5.3,5.4l17-17.5c1-1,2.6-1,3.5,0C176.3,80.7,176.3,82.3,175.3,83.3z"/><path fill="#000000" d="M128,10C62.8,10,10,62.8,10,128c0,65.2,52.8,118,118,118c65.2,0,118-52.8,118-118C246,62.8,193.2,10,128,10z M190.5,191.1c0,6.5-5.2,11.7-11.7,11.7H76.1c-6.5,0-11.7-5.2-11.7-11.7V64.9c0-6.5,5.2-11.7,11.7-11.7h102.8c6.5,0,11.7,5.2,11.7,11.7L190.5,191.1L190.5,191.1z"/></g></g>
</svg>